<?xml version="1.0" encoding="UTF-8"?>
<svg width="120" height="120" viewBox="0 0 120 120" fill="none" xmlns="http://www.w3.org/2000/svg">
    <!-- Background circle -->
    <circle cx="60" cy="60" r="56" fill="#F8F9FA" stroke="#2C3E50" stroke-width="4"/>
    
    <!-- Wi-Fi signal waves (crossed out) -->
    <g transform="translate(60, 65)">
        <!-- Outer wave -->
        <path d="M-40 -25 A45 45 0 0 1 40 -25" stroke="#E74C3C" stroke-width="4" stroke-linecap="round" fill="none" opacity="0.3"/>
        <!-- Middle wave -->
        <path d="M-30 -15 A35 35 0 0 1 30 -15" stroke="#E74C3C" stroke-width="4" stroke-linecap="round" fill="none" opacity="0.5"/>
        <!-- Inner wave -->
        <path d="M-20 -5 A25 25 0 0 1 20 -5" stroke="#E74C3C" stroke-width="4" stroke-linecap="round" fill="none" opacity="0.7"/>
        <!-- Center dot -->
        <circle cx="0" cy="5" r="4" fill="#E74C3C"/>
    </g>
    
    <!-- Cross-out line -->
    <line x1="30" y1="30" x2="90" y2="90" stroke="#E74C3C" stroke-width="4" stroke-linecap="round"/>
    
    <!-- Reconnect arrow -->
    <g transform="translate(60, 60)">
        <path d="M0 20 A20 20 0 1 1 0 -20 A20 20 0 0 1 20 0" stroke="#27AE60" stroke-width="4" stroke-linecap="round" fill="none" opacity="0" class="reconnect-arrow">
            <animate attributeName="opacity" values="0;1" dur="1s" begin="mouseover" fill="freeze"/>
            <animate attributeName="opacity" values="1;0" dur="1s" begin="mouseout" fill="freeze"/>
        </path>
        <path d="M15 -5 L20 0 L15 5" stroke="#27AE60" stroke-width="4" stroke-linecap="round" stroke-linejoin="round" fill="none" opacity="0" class="arrow-head">
            <animate attributeName="opacity" values="0;1" dur="1s" begin="mouseover" fill="freeze"/>
            <animate attributeName="opacity" values="1;0" dur="1s" begin="mouseout" fill="freeze"/>
        </path>
    </g>
    
    <style>
        @media (prefers-color-scheme: dark) {
            circle[fill="#F8F9FA"] {
                fill: #2D2D2D;
            }
        }
    </style>
</svg>
